<svg width="64" height="46" viewBox="0 0 64 46" fill="none" xmlns="http://www.w3.org/2000/svg">
<path d="M62.25 39.9167C62.25 41.1985 61.6705 42.4279 60.6391 43.3343C59.6076 44.2408 58.2087 44.75 56.75 44.75H7.25C5.79131 44.75 4.39236 44.2408 3.36091 43.3343C2.32946 42.4279 1.75 41.1985 1.75 39.9167V13.3333C1.75 12.0515 2.32946 10.8221 3.36091 9.91565C4.39236 9.00922 5.79131 8.5 7.25 8.5H18.25L23.75 1.25H40.25L45.75 8.5H56.75C58.2087 8.5 59.6076 9.00922 60.6391 9.91565C61.6705 10.8221 62.25 12.0515 62.25 13.3333V39.9167Z" stroke="black" stroke-width="2" stroke-linecap="round" stroke-linejoin="round"/>
</svg>
